<?xml version="1.0" encoding="UTF-8" standalone="no"?>
<!-- Created with Inkscape (http://www.inkscape.org/) -->

<svg
   width="21.487442mm"
   height="7.1612158mm"
   viewBox="0 0 21.487442 7.1612158"
   version="1.1"
   id="svg272"
   inkscape:version="1.1.2 (76b9e6a115, 2022-02-25)"
   sodipodi:docname="cc-by-sa.svg"
   xmlns:inkscape="http://www.inkscape.org/namespaces/inkscape"
   xmlns:sodipodi="http://sodipodi.sourceforge.net/DTD/sodipodi-0.dtd"
   xmlns="http://www.w3.org/2000/svg"
   xmlns:svg="http://www.w3.org/2000/svg">
  <sodipodi:namedview
     id="namedview274"
     pagecolor="#ffffff"
     bordercolor="#666666"
     borderopacity="1.0"
     inkscape:pageshadow="2"
     inkscape:pageopacity="0.0"
     inkscape:pagecheckerboard="0"
     inkscape:document-units="mm"
     showgrid="false"
     fit-margin-top="0"
     fit-margin-left="0"
     fit-margin-right="0"
     fit-margin-bottom="0"
     inkscape:zoom="4.0541847"
     inkscape:cx="32.558951"
     inkscape:cy="13.4429"
     inkscape:window-width="1920"
     inkscape:window-height="1043"
     inkscape:window-x="1920"
     inkscape:window-y="0"
     inkscape:window-maximized="1"
     inkscape:current-layer="layer1" />
  <defs
     id="defs269" />
  <g
     inkscape:label="Layer 1"
     inkscape:groupmode="layer"
     id="layer1"
     transform="translate(-171.49784,-139.32595)">
    <path
       style="fill:#707374;fill-opacity:1;stroke-width:0.00699497"
       d="m 174.89371,146.4829 c -0.44108,-0.0212 -0.88706,-0.13182 -1.30442,-0.32351 -0.6405,-0.29422 -1.22531,-0.82161 -1.59171,-1.43539 -0.56335,-0.94366 -0.65563,-2.09656 -0.25029,-3.12595 0.22233,-0.56459 0.59933,-1.07823 1.09342,-1.4896 0.45111,-0.37563 0.9771,-0.62177 1.54588,-0.72345 0.24251,-0.0434 0.39957,-0.0562 0.689,-0.0562 0.24082,-8e-5 0.32565,0.005 0.52813,0.0316 0.75531,0.099 1.43158,0.4328 1.99517,0.9847 0.43858,0.4295 0.74047,0.9289 0.91094,1.50699 0.0782,0.26516 0.1297,0.56044 0.14139,0.81076 0.003,0.0528 0.007,0.0946 0.009,0.093 0.003,-0.003 0.007,-0.0464 0.009,-0.0994 0.0161,-0.34972 0.10409,-0.7443 0.24352,-1.09323 0.25826,-0.64635 0.76857,-1.2682 1.37007,-1.66944 0.47075,-0.31406 0.98271,-0.49223 1.58784,-0.55256 0.17129,-0.0172 0.56325,-0.0172 0.73449,0 0.35591,0.0355 0.65354,0.10293 0.94781,0.21466 0.44337,0.16838 0.82971,0.41889 1.19155,0.77264 0.27541,0.26926 0.46977,0.52109 0.64863,0.84047 0.24223,0.43252 0.39611,0.97451 0.42026,1.48013 0.005,0.1006 0.0164,0.14007 0.0164,0.0558 0,-0.0583 0.0172,-0.2432 0.0321,-0.3443 0.1108,-0.75425 0.46365,-1.44116 1.02957,-2.00432 0.67156,-0.66826 1.46283,-1.00497 2.41834,-1.02905 0.77158,-0.0193 1.47447,0.17664 2.07561,0.57902 0.3072,0.20563 0.64061,0.51816 0.8773,0.8224 0.39211,0.50401 0.62762,1.08871 0.69818,1.73339 0.0689,0.62976 -0.009,1.2617 -0.22328,1.8047 -0.0411,0.10438 -0.1407,0.31065 -0.1992,0.4127 -0.0603,0.1053 -0.19005,0.29895 -0.26146,0.39036 -0.28202,0.36097 -0.66016,0.6952 -1.04352,0.92229 -0.11613,0.0688 -0.13224,0.0776 -0.24006,0.13144 -0.60886,0.30393 -1.33299,0.4227 -2.04819,0.33597 -0.60124,-0.0729 -1.15083,-0.29445 -1.64335,-0.66244 -0.5442,-0.40663 -0.97346,-0.94641 -1.21616,-1.52926 -0.14303,-0.34351 -0.23712,-0.75578 -0.25358,-1.11125 -0.003,-0.0528 -0.007,-0.0946 -0.009,-0.093 -0.003,0.003 -0.007,0.0448 -0.009,0.0959 -0.01,0.20354 -0.0469,0.45548 -0.0998,0.67003 -0.12964,0.52575 -0.37597,0.99393 -0.73795,1.40248 -0.0844,0.0953 -0.27924,0.2872 -0.37727,0.37163 -0.4773,0.41114 -1.00478,0.67839 -1.58435,0.80272 -0.63722,0.13671 -1.33577,0.0983 -1.9341,-0.10636 -0.17669,-0.0604 -0.45112,-0.18754 -0.61558,-0.28515 -0.54838,-0.32541 -1.04526,-0.82661 -1.35514,-1.36691 -0.2562,-0.44672 -0.41715,-0.992 -0.44027,-1.4917 -0.003,-0.0529 -0.007,-0.0962 -0.009,-0.0962 -0.003,0 -0.007,0.0433 -0.009,0.0962 -0.0132,0.28197 -0.0776,0.62339 -0.17169,0.90919 -0.13623,0.41397 -0.33123,0.76679 -0.60994,1.10363 -0.0797,0.0963 -0.3551,0.36997 -0.46078,0.45784 -0.23262,0.19343 -0.45148,0.3379 -0.71038,0.46897 -0.56065,0.28387 -1.18155,0.41704 -1.80472,0.38706 z m 7.63728,-0.66009 c 0.68749,-0.0673 1.26323,-0.34247 1.79657,-0.85873 0.49594,-0.47998 0.76626,-1.04386 0.83574,-1.74318 0.0156,-0.15766 0.0156,-0.47477 0,-0.62606 -0.0622,-0.59825 -0.27016,-1.09918 -0.64225,-1.54725 -0.36658,-0.44141 -0.8256,-0.76256 -1.33133,-0.93139 -0.48842,-0.16306 -1.08907,-0.19045 -1.61565,-0.0736 -0.635,0.14087 -1.18263,0.4957 -1.63118,1.05685 -0.35478,0.44387 -0.56592,0.95393 -0.62053,1.4989 -0.0499,0.49831 0.0206,0.99001 0.20431,1.42348 0.21826,0.51509 0.63744,1.01084 1.13649,1.34408 0.42458,0.28351 0.89821,0.43752 1.43553,0.46678 0.0766,0.004 0.35359,-0.003 0.43243,-0.01 z m -0.84336,-1.47042 -0.003,-0.86918 -0.20474,-0.003 -0.20471,-0.003 0.003,-0.7606 0.003,-0.76063 0.0151,-0.0327 c 0.0214,-0.0463 0.0673,-0.0932 0.11332,-0.11578 l 0.0394,-0.0193 h 0.79393 0.79394 l 0.0454,0.0251 c 0.0553,0.0305 0.0999,0.0822 0.11512,0.13348 0.01,0.0318 0.0109,0.13039 0.0109,0.78354 v 0.74721 h -0.20283 -0.20283 l -0.003,0.8691 -0.003,0.86913 -0.55433,0.003 -0.55433,0.003 z m 0.39735,-2.77286 c -0.14155,-0.0303 -0.23495,-0.10115 -0.29043,-0.22018 -0.0389,-0.0833 -0.0456,-0.12259 -0.0456,-0.26491 0,-0.11443 0.003,-0.13591 0.0161,-0.18539 0.0469,-0.16253 0.13975,-0.25495 0.29996,-0.29853 0.0795,-0.0217 0.27448,-0.0217 0.35396,0 0.0628,0.0172 0.13816,0.0547 0.17822,0.089 0.0651,0.0557 0.11726,0.16248 0.13502,0.27643 0.0119,0.0772 0.004,0.24167 -0.014,0.30621 -0.0485,0.16814 -0.15049,0.26201 -0.32369,0.29778 -0.0696,0.0143 -0.24143,0.014 -0.30935,0 z m 7.63514,4.24029 c 0.6759,-0.0719 1.24055,-0.34403 1.76543,-0.85095 0.47863,-0.46225 0.75517,-1.01947 0.8327,-1.67778 0.0766,-0.65074 -0.0442,-1.29973 -0.33796,-1.81543 -0.24188,-0.42461 -0.64553,-0.83979 -1.06833,-1.0989 -0.36798,-0.22553 -0.76012,-0.35181 -1.22735,-0.39534 -0.13417,-0.0124 -0.44638,-0.0106 -0.58409,0.003 -0.58537,0.06 -1.07236,0.26191 -1.51789,0.62947 -0.10814,0.0892 -0.34338,0.32581 -0.43553,0.43807 -0.39071,0.47601 -0.6004,0.96674 -0.66358,1.55289 -0.014,0.13118 -0.0159,0.44387 -0.003,0.57359 0.0601,0.61823 0.28168,1.13382 0.6898,1.60534 0.0919,0.10617 0.27765,0.28972 0.37766,0.37311 0.50557,0.4217 1.04815,0.63593 1.71027,0.6753 0.0855,0.005 0.36711,-0.003 0.46223,-0.0127 z m -0.58812,-0.95871 c -0.51784,-0.0691 -0.95507,-0.36801 -1.17136,-0.80082 -0.0568,-0.11358 -0.10412,-0.24474 -0.13386,-0.37073 -0.014,-0.0593 -0.0378,-0.18802 -0.0378,-0.20423 0,-0.0122 0.0193,-0.0127 0.44942,-0.0109 l 0.44942,0.003 0.005,0.0525 c 0.0273,0.28115 0.16973,0.46665 0.42158,0.54888 0.0736,0.0241 0.14891,0.0373 0.26284,0.0462 0.25805,0.0204 0.44283,-0.0434 0.60836,-0.20979 0.1357,-0.13634 0.23225,-0.3235 0.28217,-0.54702 0.0649,-0.29067 0.0597,-0.66945 -0.0132,-0.95401 -0.11457,-0.44715 -0.40082,-0.6686 -0.83236,-0.64384 -0.34689,0.0199 -0.56623,0.15206 -0.67326,0.40563 -0.0235,0.0556 -0.0577,0.18135 -0.0577,0.21199 v 0.0156 h 0.12763 0.12764 l -0.35319,0.35324 -0.3532,0.35325 -0.35157,-0.3515 -0.35156,-0.3515 0.13756,-0.003 0.13756,-0.003 0.0156,-0.0804 c 0.0346,-0.1774 0.0788,-0.3129 0.15015,-0.46038 0.0775,-0.15999 0.14578,-0.25831 0.26445,-0.38047 0.24704,-0.25434 0.55359,-0.40089 0.93498,-0.44693 0.10047,-0.0122 0.35788,-0.0101 0.47157,0.003 0.43685,0.0527 0.78542,0.2195 1.05672,0.50562 0.30017,0.31657 0.46895,0.70937 0.51128,1.1898 0.0122,0.13769 0.005,0.4485 -0.0132,0.56468 -0.0336,0.21582 -0.089,0.39653 -0.17573,0.57361 -0.14635,0.29874 -0.3786,0.56068 -0.65138,0.7347 -0.1955,0.1247 -0.43736,0.21188 -0.70043,0.25244 -0.10126,0.0156 -0.44384,0.0193 -0.54422,0.006 z m -13.7437,0.95194 c 0.48527,-0.0533 0.94763,-0.22402 1.35207,-0.49932 0.68332,-0.46514 1.10273,-1.10268 1.23087,-1.87103 0.03,-0.17992 0.0406,-0.31917 0.0407,-0.53308 0,-0.46069 -0.0815,-0.8404 -0.26908,-1.25161 -0.2957,-0.64815 -0.90093,-1.22254 -1.56554,-1.48574 -0.45495,-0.18016 -0.98417,-0.24234 -1.49958,-0.17616 -0.46566,0.0598 -0.87378,0.21629 -1.24364,0.47691 -0.30285,0.21338 -0.59447,0.51644 -0.80659,0.83825 -0.54509,0.82693 -0.63507,1.83523 -0.24399,2.73431 0.18108,0.41635 0.47349,0.80235 0.83841,1.1067 0.48149,0.40161 1.06685,0.63352 1.69979,0.67347 0.085,0.005 0.37359,-0.003 0.46659,-0.0127 z m -1.40391,-1.79885 c -0.0116,-0.003 -0.0462,-0.006 -0.0769,-0.0103 -0.1561,-0.0206 -0.31482,-0.0813 -0.44299,-0.16907 -0.0738,-0.0505 -0.19262,-0.17076 -0.24032,-0.24312 -0.12877,-0.1954 -0.18264,-0.39891 -0.1824,-0.689 0,-0.3478 0.0965,-0.6078 0.30114,-0.81352 0.20588,-0.20696 0.47895,-0.30628 0.80587,-0.29308 0.30718,0.0124 0.53449,0.1034 0.71758,0.28726 0.0822,0.0825 0.17896,0.21587 0.16608,0.22879 -0.009,0.009 -0.46228,0.24429 -0.47054,0.24429 -0.003,0 -0.008,-0.006 -0.0108,-0.0138 -0.01,-0.0311 -0.0741,-0.11848 -0.1147,-0.15597 -0.0477,-0.044 -0.13235,-0.0887 -0.19669,-0.10377 -0.0494,-0.0114 -0.14851,-0.01 -0.20797,0.004 -0.13528,0.0314 -0.24003,0.12673 -0.29281,0.26659 -0.0351,0.0929 -0.0454,0.15703 -0.0497,0.30689 -0.005,0.16103 0.005,0.24286 0.0403,0.3491 0.0727,0.21793 0.21847,0.32832 0.43321,0.32789 0.19378,0 0.32374,-0.0787 0.4173,-0.25159 0.0143,-0.0262 0.0266,-0.0488 0.0276,-0.0501 0.003,-0.003 0.42662,0.21278 0.43548,0.21992 0.005,0.004 -0.0423,0.0804 -0.0826,0.13475 -0.15751,0.21241 -0.37484,0.35121 -0.63839,0.40762 -0.0627,0.0135 -0.28226,0.0238 -0.33774,0.0159 z m 2.03902,-0.004 c -0.24313,-0.0277 -0.43853,-0.11414 -0.59537,-0.2634 -0.21405,-0.2037 -0.31398,-0.47027 -0.31398,-0.83751 0,-0.36555 0.0992,-0.62471 0.32022,-0.83688 0.22387,-0.21489 0.52774,-0.30919 0.87445,-0.27143 0.26927,0.0293 0.4613,0.11517 0.62402,0.27892 0.0809,0.0814 0.18143,0.22193 0.16727,0.23379 -0.005,0.004 -0.46006,0.24236 -0.46305,0.24236 -0.003,0 -0.0188,-0.0259 -0.0383,-0.0577 -0.0987,-0.16089 -0.24879,-0.23794 -0.43067,-0.22116 -0.11276,0.0103 -0.19425,0.0466 -0.26355,0.11715 -0.0708,0.0721 -0.11861,0.17809 -0.14073,0.31211 -0.0124,0.0756 -0.0124,0.313 0,0.38121 0.0259,0.14306 0.0764,0.25035 0.15473,0.32943 0.0854,0.0863 0.17317,0.12017 0.31141,0.12023 0.19034,5e-5 0.32959,-0.0841 0.41394,-0.2503 0.0138,-0.0269 0.0257,-0.0499 0.0268,-0.0511 0.003,-0.003 0.43688,0.21358 0.44333,0.21955 0.005,0.005 -0.0557,0.10068 -0.096,0.15135 -0.1787,0.22465 -0.43453,0.36983 -0.7111,0.40349 -0.0719,0.009 -0.20611,0.009 -0.28331,-8e-5 z"
       id="path70575" />
  </g>
</svg>
